<svg xmlns="http://www.w3.org/2000/svg" xmlns:xlink="http://www.w3.org/1999/xlink" version="1.1" width="1008" height="776"><g id="Context Diagram"><g id="Uses 
[HTTPS]"><polyline points="160,232 160,256 160.62,264.85 162.43,272.69 165.38,279.58 169.4,285.56 174.43,290.7 180.41,295.03 187.28,298.62 194.97,301.52 203.44,303.77 212.61,305.42 232.81,307.16 266.87,306.62 303.96,303.52 380.64,295.25 405.13,293.38 428.28,292.65 449.58,293.46 459.39,294.58 477.03,298.48 484.72,301.38 491.59000000000003,304.97 497.57000000000005,309.3 502.6,314.44 506.62,320.42 509.57000000000005,327.31 511.38,335.15 512,344 512,368" fill="none" stroke-width="1" stroke="#adb3b3" opacity="1"></polyline></g><g id="Uses 
[HTTPS]"><rect width="64.388" height="38.2" x="303.8117384451332" y="280.9638411979492" rx="4" ry="4" fill-opacity="0.8" fill="#323435" stroke-opacity="1" stroke-width="1" stroke="#434647" opacity="0.8"></rect><g opacity="1" fill="#e5e7e8"><text font-family="IBM Plex Sans Medium, Arial, sans-serif" font-size="14" text-anchor="middle" x="336.00573844513315" y="297.31384119794916"><tspan dy="0" x="336.00573844513315">Uses </tspan></text><text font-family="IBM Plex Sans Medium, Arial, sans-serif" font-size="14" text-anchor="middle" x="336.00573844513315" y="313.3138411979492"><tspan dy="0" x="336.00573844513315">[HTTPS]</tspan></text></g></g><g id="Uses
[HTTPS]"><polyline points="504,192 504.13,234.02999999999997 505.08000000000004,258.56 506.64,272.67 510.19000000000005,293.45 511.49,312.03 512,368" fill="none" stroke-width="1" stroke="#adb3b3" opacity="1"></polyline></g><g id="Uses
[HTTPS]"><rect width="64.388" height="40.4" x="475.7009192307394" y="259.81569622951116" rx="4" ry="4" fill-opacity="0.8" fill="#323435" stroke-opacity="1" stroke-width="1" stroke="#434647" opacity="0.8"></rect><g opacity="1" fill="#e5e7e8"><text font-family="IBM Plex Sans Medium, Arial, sans-serif" font-size="14" text-anchor="middle" x="507.89491923073933" y="276.1656962295112"><tspan dy="0" x="507.89491923073933">Uses</tspan><tspan dy="18.2" x="507.89491923073933">[HTTPS]</tspan></text></g></g><g id="Uses
[HTTPS]"><polyline points="848,264 848,288 847.35,297.21 845.44,305.19 842.34,312.01 838.12,317.74 832.85,322.44 826.59,326.18 819.41,329.02 811.39,331.03 802.58,332.27 782.89,332.75 772.14,332.1 749.19,329.39 712.13,322.75 635.25,306.78 599.11,301.04 577.11,299.25 566.94,299.17 548.61,300.97 540.59,302.98 533.41,305.82 527.15,309.56 521.88,314.26 517.66,319.99 514.56,326.81 512.65,334.79 512,344 512,368" fill="none" stroke-width="1" stroke="#adb3b3" opacity="1"></polyline></g><g id="Uses
[HTTPS]"><rect width="64.388" height="40.4" x="647.7953919599308" y="295.8735495525506" rx="4" ry="4" fill-opacity="0.8" fill="#323435" stroke-opacity="1" stroke-width="1" stroke="#434647" opacity="0.8"></rect><g opacity="1" fill="#e5e7e8"><text font-family="IBM Plex Sans Medium, Arial, sans-serif" font-size="14" text-anchor="middle" x="679.9893919599308" y="312.2235495525506"><tspan dy="0" x="679.9893919599308">Uses</tspan><tspan dy="18.2" x="679.9893919599308">[HTTPS]</tspan></text></g></g><g id="Sends data to"><polyline points="512,496 512,616" fill="none" stroke-width="1" stroke="#adb3b3" opacity="1"></polyline></g><g id="Sends data to"><rect width="99.836" height="22.2" x="462.082" y="544.9" rx="4" ry="4" fill-opacity="0.8" fill="#323435" stroke-opacity="1" stroke-width="1" stroke="#434647" opacity="0.8"></rect><g opacity="1" fill="#e5e7e8"><text font-family="IBM Plex Sans Medium, Arial, sans-serif" font-size="14" text-anchor="middle" x="512" y="561.2500000000001"><tspan dy="0" x="512">Sends data to</tspan></text></g></g><a href="https://app.icepanel.io/landscapes/5Tp7us5KmWmdZMp6cebA/versions/latest/model/objects?object=8qeIXyUWwe&amp;focus=8qeIXyUWwe" id="ICT To do List" target="_blank"><rect width="256" height="128" rx="8" ry="8" fill-opacity="0.8" fill="#1f2121" stroke-opacity="1" stroke-width="1" stroke="#434647" opacity="1" x="384" y="368"></rect><text font-family="IBM Plex Sans Medium, Arial, sans-serif" font-size="24" font-weight="500" text-anchor="middle" fill="#ffffff" opacity="1" x="512" y="437"><tspan dy="0" x="512">ICT To do List</tspan></text><g id="System" opacity="1"><text font-family="Courier New, monospace" font-size="12" text-anchor="middle" fill="#adb3b3" x="512" y="484.6552734375"><tspan dy="0" x="512">System</tspan></text></g></a><a href="https://app.icepanel.io/landscapes/5Tp7us5KmWmdZMp6cebA/versions/latest/model/objects?object=q5fzcyq1Dz&amp;focus=q5fzcyq1Dz" id="Students" target="_blank"><rect width="56" height="56" rx="8" ry="8" fill-opacity="0.8" fill="#1f2121" stroke-opacity="1" stroke-width="1" stroke="#434647" opacity="1" x="132" y="72"></rect><rect width="256" height="96" rx="8" ry="8" fill-opacity="0.8" fill="#1f2121" stroke-opacity="1" stroke-width="1" stroke="#434647" opacity="1" x="32" y="136"></rect><path d="M160 101.71428571428572C163.7875 101.71428571428572 166.85714285714286 98.64464285714286 166.85714285714286 94.85714285714286C166.85714285714286 91.06964285714285 163.7875 88 160 88C156.2125 88 153.14285714285714 91.06964285714285 153.14285714285714 94.85714285714286C153.14285714285714 98.64464285714286 156.2125 101.71428571428572 160 101.71428571428572ZM164.8 103.42857142857143L163.90535714285716 103.42857142857143C162.71607142857144 103.975 161.39285714285714 104.28571428571428 160 104.28571428571428C158.60714285714286 104.28571428571428 157.2892857142857 103.975 156.09464285714284 103.42857142857143L155.2 103.42857142857143C151.225 103.42857142857143 148 106.65357142857142 148 110.62857142857143L148 112.85714285714286C148 114.27678571428571 149.15178571428572 115.42857142857143 150.57142857142856 115.42857142857143L169.42857142857142 115.42857142857143C170.84821428571428 115.42857142857143 172 114.27678571428571 172 112.85714285714286L172 110.62857142857143C172 106.65357142857142 168.775 103.42857142857143 164.8 103.42857142857143Z " fill="#ffffff" opacity="1"></path><text font-family="IBM Plex Sans Medium, Arial, sans-serif" font-size="24" font-weight="500" text-anchor="middle" fill="#ffffff" opacity="1" x="160" y="174.33333333333337"><tspan dy="0" x="160">Students</tspan></text><g opacity="1"><text font-family="IBM Plex Sans, Arial, sans-serif" font-size="11" text-anchor="middle" fill="#adb3b3" x="160" y="200.45833333333334"><tspan dy="0" x="160">Manages personal tasks and tracks course work</tspan></text></g><g id="Actor" opacity="1"><text font-family="Courier New, monospace" font-size="12" text-anchor="middle" fill="#adb3b3" x="160" y="220.6552734375"><tspan dy="0" x="160">Actor</tspan></text></g></a><a href="https://app.icepanel.io/landscapes/5Tp7us5KmWmdZMp6cebA/versions/latest/model/objects?object=KyGEfben9C&amp;focus=KyGEfben9C" id="Instructor" target="_blank"><rect width="56" height="56" rx="8" ry="8" fill-opacity="0.8" fill="#1f2121" stroke-opacity="1" stroke-width="1" stroke="#434647" opacity="1" x="476" y="32"></rect><rect width="256" height="96" rx="8" ry="8" fill-opacity="0.8" fill="#1f2121" stroke-opacity="1" stroke-width="1" stroke="#434647" opacity="1" x="376" y="96"></rect><path d="M504 61.714285714285715C507.7875 61.714285714285715 510.8571428571429 58.644642857142856 510.8571428571429 54.85714285714286C510.8571428571429 51.06964285714285 507.7875 48 504 48C500.2125 48 497.1428571428571 51.06964285714285 497.1428571428571 54.85714285714286C497.1428571428571 58.644642857142856 500.2125 61.714285714285715 504 61.714285714285715ZM508.8 63.42857142857143L507.90535714285716 63.42857142857143C506.71607142857147 63.974999999999994 505.3928571428571 64.28571428571428 504 64.28571428571428C502.6071428571429 64.28571428571428 501.2892857142857 63.974999999999994 500.09464285714284 63.42857142857143L499.2 63.42857142857143C495.225 63.42857142857143 492 66.65357142857142 492 70.62857142857143L492 72.85714285714286C492 74.27678571428571 493.1517857142857 75.42857142857143 494.57142857142856 75.42857142857143L513.4285714285714 75.42857142857143C514.8482142857142 75.42857142857143 516 74.27678571428571 516 72.85714285714286L516 70.62857142857143C516 66.65357142857142 512.775 63.42857142857143 508.8 63.42857142857143Z " fill="#ffffff" opacity="1"></path><text font-family="IBM Plex Sans Medium, Arial, sans-serif" font-size="24" font-weight="500" text-anchor="middle" fill="#ffffff" opacity="1" x="504" y="134.33333333333334"><tspan dy="0" x="504">Instructor</tspan></text><g opacity="1"><text font-family="IBM Plex Sans, Arial, sans-serif" font-size="10" text-anchor="middle" fill="#adb3b3" x="504" y="154.08333333333334"><tspan dy="0" x="504">Views teaching tasks and monitors assignment</tspan></text><text font-family="IBM Plex Sans, Arial, sans-serif" font-size="10" text-anchor="middle" fill="#adb3b3" x="504" y="166.08333333333334"><tspan dy="0" x="504">deadlines</tspan></text></g><g id="Actor" opacity="1"><text font-family="Courier New, monospace" font-size="12" text-anchor="middle" fill="#adb3b3" x="504" y="180.6552734375"><tspan dy="0" x="504">Actor</tspan></text></g></a><a href="https://app.icepanel.io/landscapes/5Tp7us5KmWmdZMp6cebA/versions/latest/model/objects?object=xX8AESmBaM&amp;focus=xX8AESmBaM" id="System Admin" target="_blank"><rect width="56" height="56" rx="8" ry="8" fill-opacity="0.8" fill="#1f2121" stroke-opacity="1" stroke-width="1" stroke="#434647" opacity="1" x="820" y="104"></rect><rect width="256" height="96" rx="8" ry="8" fill-opacity="0.8" fill="#1f2121" stroke-opacity="1" stroke-width="1" stroke="#434647" opacity="1" x="720" y="168"></rect><path d="M848 133.71428571428572C851.7875 133.71428571428572 854.8571428571429 130.64464285714286 854.8571428571429 126.85714285714286C854.8571428571429 123.06964285714285 851.7875 120 848 120C844.2125 120 841.1428571428571 123.06964285714285 841.1428571428571 126.85714285714286C841.1428571428571 130.64464285714286 844.2125 133.71428571428572 848 133.71428571428572ZM852.8 135.42857142857144L851.9053571428572 135.42857142857144C850.7160714285715 135.975 849.3928571428571 136.28571428571428 848 136.28571428571428C846.6071428571429 136.28571428571428 845.2892857142857 135.975 844.0946428571428 135.42857142857144L843.2 135.42857142857144C839.225 135.42857142857144 836 138.6535714285714 836 142.62857142857143L836 144.85714285714286C836 146.27678571428572 837.1517857142857 147.42857142857144 838.5714285714286 147.42857142857144L857.4285714285714 147.42857142857144C858.8482142857142 147.42857142857144 860 146.27678571428572 860 144.85714285714286L860 142.62857142857143C860 138.6535714285714 856.775 135.42857142857144 852.8 135.42857142857144Z " fill="#ffffff" opacity="1"></path><text font-family="IBM Plex Sans Medium, Arial, sans-serif" font-size="24" font-weight="500" text-anchor="middle" fill="#ffffff" opacity="1" x="848" y="206.33333333333337"><tspan dy="0" x="848">System Admin</tspan></text><g opacity="1"><text font-family="IBM Plex Sans, Arial, sans-serif" font-size="11" text-anchor="middle" fill="#adb3b3" x="848" y="232.45833333333334"><tspan dy="0" x="848">Manage configuration, users, and sync health</tspan></text></g><g id="Actor" opacity="1"><text font-family="Courier New, monospace" font-size="12" text-anchor="middle" fill="#adb3b3" x="848" y="252.6552734375"><tspan dy="0" x="848">Actor</tspan></text></g></a><a href="https://app.icepanel.io/landscapes/5Tp7us5KmWmdZMp6cebA/versions/latest/model/objects?object=DjPHYOQqOQ&amp;focus=DjPHYOQqOQ" id="MyCourses" target="_blank"><rect width="256" height="128" rx="8" ry="8" fill-opacity="0.8" fill="#1f2121" stroke-opacity="1" stroke-width="1" stroke="#434647" opacity="1" x="384" y="616"></rect><text font-family="IBM Plex Sans Medium, Arial, sans-serif" font-size="24" font-weight="500" text-anchor="middle" fill="#ffffff" opacity="1" x="512" y="667.0000000000001"><tspan dy="0" x="512">MyCourses</tspan></text><g opacity="1"><text font-family="IBM Plex Sans, Arial, sans-serif" font-size="12" text-anchor="middle" fill="#adb3b3" x="512" y="693.5"><tspan dy="0" x="512">External e-learning system</tspan></text><text font-family="IBM Plex Sans, Arial, sans-serif" font-size="12" text-anchor="middle" fill="#adb3b3" x="512" y="707.5"><tspan dy="0" x="512">Provides courses, assignments, submissions</tspan></text></g><g id="System" opacity="1"><text font-family="Courier New, monospace" font-size="12" text-anchor="middle" fill="#adb3b3" x="512" y="732.6552734375"><tspan dy="0" x="512">System</tspan></text></g></a><g id="Uses 
[HTTPS]"><polygon points="448,288 440,304 456,304 448,288" fill="#adb3b3" opacity="1" transform="matrix(-1,1.2246467991473532e-16,-1.2246467991473532e-16,-1,960,656)"></polygon><circle r="4" fill="#adb3b3" opacity="1" cx="160" cy="232"></circle></g><g id="Uses
[HTTPS]"><polygon points="448.22000788605817,287.7100878030174 440.22000788605817,303.7100878030174 456.22000788605817,303.7100878030174 448.22000788605817,287.7100878030174" fill="#adb3b3" opacity="1" transform="matrix(-0.9999584880915906,0.009111646041213471,-0.009111646041213471,-0.9999584880915906,962.8229139006912,651.6141223477564)"></polygon><circle r="4" fill="#adb3b3" opacity="1" cx="504" cy="192"></circle></g><g id="Uses
[HTTPS]"><polygon points="448,288 440,304 456,304 448,288" fill="#adb3b3" opacity="1" transform="matrix(-1,1.2246467991473532e-16,-1.2246467991473532e-16,-1,960,656)"></polygon><circle r="4" fill="#adb3b3" opacity="1" cx="848" cy="264"></circle></g><g id="Sends data to"><polygon points="448.00000000000006,536 440.00000000000006,552 456.00000000000006,552 448.00000000000006,536" fill="#adb3b3" opacity="1" transform="matrix(-1,1.2246467991473532e-16,-1.2246467991473532e-16,-1,960,1152)"></polygon><circle r="4" fill="#adb3b3" opacity="1" cx="512" cy="496"></circle></g></g></svg>